<svg xmlns="http://www.w3.org/2000/svg" xmlns:xlink="http://www.w3.org/1999/xlink" width="500" zoomAndPan="magnify" viewBox="0 0 375 374.999991" height="500" preserveAspectRatio="xMidYMid meet" version="1.0"><defs><g/><clipPath id="599f753d44"><path d="M 42 42 L 333 42 L 333 333 L 42 333 Z M 42 42 " clip-rule="nonzero"/></clipPath><clipPath id="b2249cd456"><path d="M 198.058594 45.832031 C 204.617188 51.007812 213.398438 52.398438 221.234375 49.5 C 228.632812 46.769531 236.941406 49.46875 241.320312 56.027344 C 245.960938 62.976562 253.878906 67.011719 262.226562 66.679688 C 270.109375 66.367188 277.175781 71.503906 279.3125 79.09375 C 281.578125 87.136719 287.863281 93.421875 295.90625 95.6875 C 303.496094 97.824219 308.632812 104.890625 308.320312 112.773438 C 307.988281 121.121094 312.023438 129.039062 318.972656 133.679688 C 325.53125 138.058594 328.230469 146.367188 325.5 153.765625 C 322.601562 161.601562 323.992188 170.382812 329.167969 176.941406 C 334.054688 183.132812 334.054688 191.867188 329.167969 198.058594 C 323.992188 204.617188 322.601562 213.398438 325.5 221.234375 C 328.230469 228.632812 325.53125 236.941406 318.972656 241.320312 C 312.023438 245.960938 307.988281 253.878906 308.320312 262.226562 C 308.632812 270.109375 303.496094 277.175781 295.90625 279.3125 C 287.863281 281.578125 281.578125 287.863281 279.3125 295.90625 C 277.175781 303.496094 270.109375 308.632812 262.226562 308.320312 C 253.878906 307.988281 245.960938 312.023438 241.320312 318.972656 C 236.941406 325.53125 228.632812 328.230469 221.234375 325.5 C 213.398438 322.601562 204.617188 323.992188 198.058594 329.167969 C 191.867188 334.054688 183.132812 334.054688 176.941406 329.167969 C 170.382812 323.992188 161.601562 322.601562 153.765625 325.5 C 146.367188 328.230469 138.058594 325.53125 133.679688 318.972656 C 129.039062 312.023438 121.121094 307.988281 112.773438 308.320312 C 104.890625 308.632812 97.824219 303.496094 95.6875 295.90625 C 93.421875 287.863281 87.136719 281.578125 79.09375 279.3125 C 71.503906 277.175781 66.367188 270.109375 66.679688 262.226562 C 67.011719 253.878906 62.976562 245.960938 56.027344 241.320312 C 49.46875 236.941406 46.769531 228.632812 49.5 221.234375 C 52.398438 213.398438 51.007812 204.617188 45.832031 198.058594 C 40.945312 191.867188 40.945312 183.132812 45.832031 176.941406 C 51.007812 170.382812 52.398438 161.601562 49.5 153.765625 C 46.769531 146.367188 49.46875 138.058594 56.027344 133.679688 C 62.976562 129.039062 67.011719 121.121094 66.679688 112.773438 C 66.367188 104.890625 71.503906 97.824219 79.09375 95.6875 C 87.136719 93.421875 93.421875 87.136719 95.6875 79.09375 C 97.824219 71.503906 104.890625 66.367188 112.773438 66.679688 C 121.121094 67.011719 129.039062 62.976562 133.679688 56.027344 C 138.058594 49.46875 146.367188 46.769531 153.765625 49.5 C 161.601562 52.398438 170.382812 51.007812 176.941406 45.832031 C 183.132812 40.945312 191.867188 40.945312 198.058594 45.832031 Z M 198.058594 45.832031 " clip-rule="nonzero"/></clipPath><clipPath id="cdf8ed00d6"><path d="M 182.609375 47.4375 L 192.390625 47.4375 L 192.390625 57.21875 L 182.609375 57.21875 Z M 182.609375 47.4375 " clip-rule="nonzero"/></clipPath><clipPath id="8b281fa7f9"><path d="M 187.5 47.4375 C 184.796875 47.4375 182.609375 49.625 182.609375 52.328125 C 182.609375 55.03125 184.796875 57.21875 187.5 57.21875 C 190.203125 57.21875 192.390625 55.03125 192.390625 52.328125 C 192.390625 49.625 190.203125 47.4375 187.5 47.4375 Z M 187.5 47.4375 " clip-rule="nonzero"/></clipPath><clipPath id="3d461e736c"><path d="M 224 52 L 235 52 L 235 63 L 224 63 Z M 224 52 " clip-rule="nonzero"/></clipPath><clipPath id="14e7d9dee4"><path d="M 226.179688 51.898438 L 235.644531 54.367188 L 233.175781 63.832031 L 223.710938 61.367188 Z M 226.179688 51.898438 " clip-rule="nonzero"/></clipPath><clipPath id="b1a382a987"><path d="M 230.910156 53.132812 C 228.296875 52.453125 225.625 54.019531 224.945312 56.632812 C 224.261719 59.246094 225.828125 61.917969 228.445312 62.597656 C 231.058594 63.28125 233.730469 61.714844 234.410156 59.101562 C 235.09375 56.484375 233.523438 53.8125 230.910156 53.132812 Z M 230.910156 53.132812 " clip-rule="nonzero"/></clipPath><clipPath id="2be294a8c8"><path d="M 262 72 L 273 72 L 273 83 L 262 83 Z M 262 72 " clip-rule="nonzero"/></clipPath><clipPath id="01f98a85dd"><path d="M 266.761719 70.914062 L 274.609375 76.757812 L 268.765625 84.605469 L 260.917969 78.761719 Z M 266.761719 70.914062 " clip-rule="nonzero"/></clipPath><clipPath id="6aaf64d4bc"><path d="M 270.683594 73.835938 C 268.515625 72.222656 265.453125 72.671875 263.839844 74.839844 C 262.226562 77.007812 262.675781 80.070312 264.84375 81.683594 C 267.011719 83.296875 270.074219 82.847656 271.6875 80.679688 C 273.300781 78.515625 272.851562 75.449219 270.683594 73.835938 Z M 270.683594 73.835938 " clip-rule="nonzero"/></clipPath><clipPath id="2eca753370"><path d="M 292 103 L 303 103 L 303 114 L 292 114 Z M 292 103 " clip-rule="nonzero"/></clipPath><clipPath id="164d75aa20"><path d="M 298.902344 101.652344 L 304.566406 109.628906 L 296.59375 115.292969 L 290.925781 107.316406 Z M 298.902344 101.652344 " clip-rule="nonzero"/></clipPath><clipPath id="777f1668bd"><path d="M 301.734375 105.640625 C 300.171875 103.4375 297.117188 102.921875 294.914062 104.484375 C 292.710938 106.050781 292.195312 109.101562 293.757812 111.304688 C 295.324219 113.507812 298.378906 114.023438 300.578125 112.460938 C 302.78125 110.898438 303.300781 107.84375 301.734375 105.640625 Z M 301.734375 105.640625 " clip-rule="nonzero"/></clipPath><clipPath id="225d37f919"><path d="M 312 141 L 323 141 L 323 152 L 312 152 Z M 312 141 " clip-rule="nonzero"/></clipPath><clipPath id="75b6bb3385"><path d="M 321.230469 141.019531 L 323.4375 150.550781 L 313.90625 152.757812 L 311.699219 143.226562 Z M 321.230469 141.019531 " clip-rule="nonzero"/></clipPath><clipPath id="20b74899d3"><path d="M 322.332031 145.785156 C 321.722656 143.152344 319.097656 141.511719 316.464844 142.121094 C 313.832031 142.730469 312.191406 145.359375 312.800781 147.992188 C 313.410156 150.621094 316.039062 152.261719 318.671875 151.652344 C 321.300781 151.042969 322.941406 148.414062 322.332031 145.785156 Z M 322.332031 145.785156 " clip-rule="nonzero"/></clipPath><clipPath id="0249cdf310"><path d="M 319.652344 183.21875 L 329.4375 183.21875 L 329.4375 193.003906 L 319.652344 193.003906 Z M 319.652344 183.21875 " clip-rule="nonzero"/></clipPath><clipPath id="4393de7b3f"><path d="M 329.4375 188.113281 C 329.4375 185.410156 327.246094 183.21875 324.542969 183.21875 C 321.84375 183.21875 319.652344 185.410156 319.652344 188.113281 C 319.652344 190.8125 321.84375 193.003906 324.542969 193.003906 C 327.246094 193.003906 329.4375 190.8125 329.4375 188.113281 Z M 329.4375 188.113281 " clip-rule="nonzero"/></clipPath><clipPath id="2e697c421e"><path d="M 312 225 L 323 225 L 323 236 L 312 236 Z M 312 225 " clip-rule="nonzero"/></clipPath><clipPath id="45624bf02c"><path d="M 323.691406 226.929688 L 320.773438 236.265625 L 311.4375 233.351562 L 314.355469 224.011719 Z M 323.691406 226.929688 " clip-rule="nonzero"/></clipPath><clipPath id="88f3e82834"><path d="M 322.234375 231.597656 C 323.039062 229.019531 321.601562 226.277344 319.023438 225.472656 C 316.445312 224.664062 313.703125 226.101562 312.894531 228.679688 C 312.089844 231.257812 313.527344 234.003906 316.105469 234.808594 C 318.683594 235.613281 321.429688 234.175781 322.234375 231.597656 Z M 322.234375 231.597656 " clip-rule="nonzero"/></clipPath><clipPath id="4315925732"><path d="M 292 263 L 303 263 L 303 274 L 292 274 Z M 292 263 " clip-rule="nonzero"/></clipPath><clipPath id="cc848ada62"><path d="M 304.734375 267.800781 L 298.824219 275.59375 L 291.03125 269.683594 L 296.941406 261.886719 Z M 304.734375 267.800781 " clip-rule="nonzero"/></clipPath><clipPath id="3591b2c0bd"><path d="M 301.78125 271.695312 C 303.414062 269.542969 302.992188 266.476562 300.839844 264.84375 C 298.6875 263.210938 295.617188 263.632812 293.984375 265.785156 C 292.351562 267.9375 292.773438 271.003906 294.925781 272.636719 C 297.078125 274.269531 300.148438 273.847656 301.78125 271.695312 Z M 301.78125 271.695312 " clip-rule="nonzero"/></clipPath><clipPath id="a256b24106"><path d="M 262 293 L 273 293 L 273 303 L 262 303 Z M 262 293 " clip-rule="nonzero"/></clipPath><clipPath id="c32f42d5d6"><path d="M 274.574219 299.601562 L 266.222656 304.695312 L 261.128906 296.34375 L 269.480469 291.25 Z M 274.574219 299.601562 " clip-rule="nonzero"/></clipPath><clipPath id="d059efc283"><path d="M 270.398438 302.148438 C 272.703125 300.742188 273.433594 297.730469 272.027344 295.425781 C 270.621094 293.117188 267.609375 292.386719 265.304688 293.796875 C 263 295.203125 262.269531 298.210938 263.675781 300.519531 C 265.082031 302.824219 268.09375 303.554688 270.398438 302.148438 Z M 270.398438 302.148438 " clip-rule="nonzero"/></clipPath><clipPath id="909270b78b"><path d="M 224 313 L 235 313 L 235 324 L 224 324 Z M 224 313 " clip-rule="nonzero"/></clipPath><clipPath id="a0fbfb3541"><path d="M 235.238281 321.96875 L 225.640625 323.875 L 223.738281 314.277344 L 233.332031 312.375 Z M 235.238281 321.96875 " clip-rule="nonzero"/></clipPath><clipPath id="0b3a94d1da"><path d="M 230.4375 322.921875 C 233.089844 322.398438 234.808594 319.820312 234.285156 317.171875 C 233.757812 314.523438 231.183594 312.800781 228.535156 313.328125 C 225.886719 313.851562 224.164062 316.425781 224.6875 319.078125 C 225.214844 321.726562 227.789062 323.449219 230.4375 322.921875 Z M 230.4375 322.921875 " clip-rule="nonzero"/></clipPath><clipPath id="4695bd1159"><path d="M 182 320 L 193 320 L 193 331 L 182 331 Z M 182 320 " clip-rule="nonzero"/></clipPath><clipPath id="d4d4be4cbb"><path d="M 192.90625 329.746094 L 183.140625 330.324219 L 182.5625 320.558594 L 192.328125 319.980469 Z M 192.90625 329.746094 " clip-rule="nonzero"/></clipPath><clipPath id="771d36fa1e"><path d="M 188.023438 330.035156 C 190.722656 329.875 192.777344 327.558594 192.617188 324.863281 C 192.457031 322.167969 190.140625 320.109375 187.445312 320.269531 C 184.75 320.429688 182.691406 322.746094 182.851562 325.441406 C 183.011719 328.136719 185.328125 330.195312 188.023438 330.035156 Z M 188.023438 330.035156 " clip-rule="nonzero"/></clipPath><clipPath id="46c303d6a6"><path d="M 140 313 L 150 313 L 150 324 L 140 324 Z M 140 313 " clip-rule="nonzero"/></clipPath><clipPath id="488f8f938e"><path d="M 147.910156 324.859375 L 138.675781 321.628906 L 141.90625 312.394531 L 151.140625 315.625 Z M 147.910156 324.859375 " clip-rule="nonzero"/></clipPath><clipPath id="b901d1c514"><path d="M 143.292969 323.246094 C 145.84375 324.136719 148.632812 322.792969 149.527344 320.242188 C 150.417969 317.691406 149.074219 314.902344 146.523438 314.011719 C 143.972656 313.117188 141.183594 314.460938 140.292969 317.011719 C 139.398438 319.5625 140.742188 322.351562 143.292969 323.246094 Z M 143.292969 323.246094 " clip-rule="nonzero"/></clipPath><clipPath id="ed42c09ba7"><path d="M 101 294 L 112 294 L 112 305 L 101 305 Z M 101 294 " clip-rule="nonzero"/></clipPath><clipPath id="2781e72d51"><path d="M 106.851562 306.609375 L 99.558594 300.089844 L 106.074219 292.792969 L 113.371094 299.3125 Z M 106.851562 306.609375 " clip-rule="nonzero"/></clipPath><clipPath id="ec07483c9f"><path d="M 103.207031 303.347656 C 105.21875 305.148438 108.3125 304.976562 110.113281 302.960938 C 111.914062 300.945312 111.738281 297.851562 109.722656 296.054688 C 107.710938 294.253906 104.617188 294.429688 102.816406 296.441406 C 101.015625 298.457031 101.191406 301.550781 103.207031 303.347656 Z M 103.207031 303.347656 " clip-rule="nonzero"/></clipPath><clipPath id="1ea7c289d9"><path d="M 71 263 L 82 263 L 82 274 L 71 274 Z M 71 263 " clip-rule="nonzero"/></clipPath><clipPath id="2f95ec92ec"><path d="M 75.542969 275.6875 L 69.578125 267.933594 L 77.332031 261.96875 L 83.296875 269.71875 Z M 75.542969 275.6875 " clip-rule="nonzero"/></clipPath><clipPath id="3ca642dc13"><path d="M 72.5625 271.808594 C 74.210938 273.949219 77.28125 274.351562 79.421875 272.703125 C 81.5625 271.054688 81.960938 267.984375 80.316406 265.84375 C 78.667969 263.703125 75.597656 263.304688 73.457031 264.949219 C 71.3125 266.597656 70.914062 269.667969 72.5625 271.808594 Z M 72.5625 271.808594 " clip-rule="nonzero"/></clipPath><clipPath id="00700cd72c"><path d="M 52 225 L 63 225 L 63 235 L 52 235 Z M 52 225 " clip-rule="nonzero"/></clipPath><clipPath id="b18f300efb"><path d="M 53.679688 235.738281 L 51.539062 226.191406 L 61.085938 224.050781 L 63.222656 233.597656 Z M 53.679688 235.738281 " clip-rule="nonzero"/></clipPath><clipPath id="24efb19092"><path d="M 52.609375 230.964844 C 53.199219 233.601562 55.816406 235.257812 58.453125 234.667969 C 61.085938 234.078125 62.746094 231.460938 62.152344 228.824219 C 61.5625 226.1875 58.949219 224.53125 56.3125 225.121094 C 53.675781 225.714844 52.015625 228.328125 52.609375 230.964844 Z M 52.609375 230.964844 " clip-rule="nonzero"/></clipPath><clipPath id="9394370c35"><path d="M 45 183 L 56 183 L 56 193 L 45 193 Z M 45 183 " clip-rule="nonzero"/></clipPath><clipPath id="41fc2b7ab6"><path d="M 45.6875 192.832031 L 45.859375 183.050781 L 55.640625 183.222656 L 55.46875 193.003906 Z M 45.6875 192.832031 " clip-rule="nonzero"/></clipPath><clipPath id="51f9050fef"><path d="M 45.773438 187.941406 C 45.726562 190.644531 47.878906 192.871094 50.578125 192.917969 C 53.277344 192.964844 55.507812 190.816406 55.554688 188.113281 C 55.601562 185.414062 53.449219 183.183594 50.75 183.136719 C 48.046875 183.089844 45.820312 185.242188 45.773438 187.941406 Z M 45.773438 187.941406 " clip-rule="nonzero"/></clipPath><clipPath id="53c5deafea"><path d="M 52 140 L 63 140 L 63 151 L 52 151 Z M 52 140 " clip-rule="nonzero"/></clipPath><clipPath id="d6d48e677a"><path d="M 51.5625 148.476562 L 54.855469 139.265625 L 64.066406 142.558594 L 60.773438 151.769531 Z M 51.5625 148.476562 " clip-rule="nonzero"/></clipPath><clipPath id="fa2c201134"><path d="M 53.207031 143.871094 C 52.300781 146.414062 53.625 149.214844 56.167969 150.125 C 58.710938 151.035156 61.511719 149.707031 62.421875 147.164062 C 63.328125 144.621094 62.003906 141.820312 59.460938 140.910156 C 56.917969 140.003906 54.117188 141.328125 53.207031 143.871094 Z M 53.207031 143.871094 " clip-rule="nonzero"/></clipPath><clipPath id="a51cdd7ef3"><path d="M 71 102 L 82 102 L 82 113 L 71 113 Z M 71 102 " clip-rule="nonzero"/></clipPath><clipPath id="e505a1428b"><path d="M 69.539062 108.109375 L 75.679688 100.492188 L 83.292969 106.632812 L 77.152344 114.25 Z M 69.539062 108.109375 " clip-rule="nonzero"/></clipPath><clipPath id="20fc5250f5"><path d="M 72.609375 104.300781 C 70.914062 106.402344 71.242188 109.484375 73.347656 111.179688 C 75.449219 112.875 78.527344 112.546875 80.222656 110.441406 C 81.921875 108.339844 81.589844 105.261719 79.488281 103.5625 C 77.382812 101.867188 74.304688 102.199219 72.609375 104.300781 Z M 72.609375 104.300781 " clip-rule="nonzero"/></clipPath><clipPath id="01f0829f52"><path d="M 102 72 L 113 72 L 113 83 L 102 83 Z M 102 72 " clip-rule="nonzero"/></clipPath><clipPath id="6518b85df9"><path d="M 100.527344 76.464844 L 108.496094 70.792969 L 114.167969 78.761719 L 106.199219 84.433594 Z M 100.527344 76.464844 " clip-rule="nonzero"/></clipPath><clipPath id="2a21e68013"><path d="M 104.511719 73.628906 C 102.308594 75.195312 101.796875 78.25 103.363281 80.449219 C 104.929688 82.652344 107.980469 83.164062 110.183594 81.597656 C 112.382812 80.03125 112.898438 76.980469 111.332031 74.777344 C 109.765625 72.578125 106.710938 72.0625 104.511719 73.628906 Z M 104.511719 73.628906 " clip-rule="nonzero"/></clipPath><clipPath id="c2b5daf917"><path d="M 140 53 L 151 53 L 151 63 L 140 63 Z M 140 53 " clip-rule="nonzero"/></clipPath><clipPath id="23dceb0f8a"><path d="M 139.011719 54.863281 L 148.335938 51.90625 L 151.292969 61.230469 L 141.96875 64.1875 Z M 139.011719 54.863281 " clip-rule="nonzero"/></clipPath><clipPath id="63324a08b9"><path d="M 143.671875 53.386719 C 141.097656 54.203125 139.671875 56.953125 140.492188 59.527344 C 141.308594 62.101562 144.058594 63.527344 146.632812 62.710938 C 149.207031 61.890625 150.632812 59.140625 149.816406 56.566406 C 149 53.992188 146.25 52.566406 143.671875 53.386719 Z M 143.671875 53.386719 " clip-rule="nonzero"/></clipPath></defs><g clip-path="url(#599f753d44)"><g clip-path="url(#b2249cd456)"><path fill="#8dbb01" d="M 37.5 37.5 L 337.5 37.5 L 337.5 337.5 L 37.5 337.5 Z M 37.5 37.5 " fill-opacity="1" fill-rule="nonzero"/></g></g><g clip-path="url(#cdf8ed00d6)"><g clip-path="url(#8b281fa7f9)"><path fill="#fefefe" d="M 182.609375 47.4375 L 192.390625 47.4375 L 192.390625 57.21875 L 182.609375 57.21875 Z M 182.609375 47.4375 " fill-opacity="1" fill-rule="nonzero"/></g></g><g clip-path="url(#3d461e736c)"><g clip-path="url(#14e7d9dee4)"><g clip-path="url(#b1a382a987)"><path fill="#fefefe" d="M 226.179688 51.898438 L 235.644531 54.367188 L 233.175781 63.832031 L 223.710938 61.367188 Z M 226.179688 51.898438 " fill-opacity="1" fill-rule="nonzero"/></g></g></g><g clip-path="url(#2be294a8c8)"><g clip-path="url(#01f98a85dd)"><g clip-path="url(#6aaf64d4bc)"><path fill="#fefefe" d="M 266.761719 70.914062 L 274.609375 76.757812 L 268.765625 84.605469 L 260.917969 78.761719 Z M 266.761719 70.914062 " fill-opacity="1" fill-rule="nonzero"/></g></g></g><g clip-path="url(#2eca753370)"><g clip-path="url(#164d75aa20)"><g clip-path="url(#777f1668bd)"><path fill="#fefefe" d="M 298.902344 101.652344 L 304.566406 109.628906 L 296.59375 115.292969 L 290.925781 107.316406 Z M 298.902344 101.652344 " fill-opacity="1" fill-rule="nonzero"/></g></g></g><g clip-path="url(#225d37f919)"><g clip-path="url(#75b6bb3385)"><g clip-path="url(#20b74899d3)"><path fill="#fefefe" d="M 321.230469 141.019531 L 323.4375 150.550781 L 313.90625 152.757812 L 311.699219 143.226562 Z M 321.230469 141.019531 " fill-opacity="1" fill-rule="nonzero"/></g></g></g><g clip-path="url(#0249cdf310)"><g clip-path="url(#4393de7b3f)"><path fill="#fefefe" d="M 329.4375 183.21875 L 329.4375 193.003906 L 319.652344 193.003906 L 319.652344 183.21875 Z M 329.4375 183.21875 " fill-opacity="1" fill-rule="nonzero"/></g></g><g clip-path="url(#2e697c421e)"><g clip-path="url(#45624bf02c)"><g clip-path="url(#88f3e82834)"><path fill="#fefefe" d="M 323.691406 226.929688 L 320.773438 236.265625 L 311.4375 233.351562 L 314.355469 224.011719 Z M 323.691406 226.929688 " fill-opacity="1" fill-rule="nonzero"/></g></g></g><g clip-path="url(#4315925732)"><g clip-path="url(#cc848ada62)"><g clip-path="url(#3591b2c0bd)"><path fill="#fefefe" d="M 304.734375 267.800781 L 298.824219 275.59375 L 291.03125 269.683594 L 296.941406 261.886719 Z M 304.734375 267.800781 " fill-opacity="1" fill-rule="nonzero"/></g></g></g><g clip-path="url(#a256b24106)"><g clip-path="url(#c32f42d5d6)"><g clip-path="url(#d059efc283)"><path fill="#fefefe" d="M 274.574219 299.601562 L 266.222656 304.695312 L 261.128906 296.34375 L 269.480469 291.25 Z M 274.574219 299.601562 " fill-opacity="1" fill-rule="nonzero"/></g></g></g><g clip-path="url(#909270b78b)"><g clip-path="url(#a0fbfb3541)"><g clip-path="url(#0b3a94d1da)"><path fill="#fefefe" d="M 235.238281 321.96875 L 225.640625 323.875 L 223.738281 314.277344 L 233.332031 312.375 Z M 235.238281 321.96875 " fill-opacity="1" fill-rule="nonzero"/></g></g></g><g clip-path="url(#4695bd1159)"><g clip-path="url(#d4d4be4cbb)"><g clip-path="url(#771d36fa1e)"><path fill="#fefefe" d="M 192.90625 329.746094 L 183.140625 330.324219 L 182.5625 320.558594 L 192.328125 319.980469 Z M 192.90625 329.746094 " fill-opacity="1" fill-rule="nonzero"/></g></g></g><g clip-path="url(#46c303d6a6)"><g clip-path="url(#488f8f938e)"><g clip-path="url(#b901d1c514)"><path fill="#fefefe" d="M 147.910156 324.859375 L 138.675781 321.628906 L 141.90625 312.394531 L 151.140625 315.625 Z M 147.910156 324.859375 " fill-opacity="1" fill-rule="nonzero"/></g></g></g><g clip-path="url(#ed42c09ba7)"><g clip-path="url(#2781e72d51)"><g clip-path="url(#ec07483c9f)"><path fill="#fefefe" d="M 106.851562 306.609375 L 99.558594 300.089844 L 106.074219 292.792969 L 113.371094 299.3125 Z M 106.851562 306.609375 " fill-opacity="1" fill-rule="nonzero"/></g></g></g><g clip-path="url(#1ea7c289d9)"><g clip-path="url(#2f95ec92ec)"><g clip-path="url(#3ca642dc13)"><path fill="#fefefe" d="M 75.542969 275.6875 L 69.578125 267.933594 L 77.332031 261.96875 L 83.296875 269.71875 Z M 75.542969 275.6875 " fill-opacity="1" fill-rule="nonzero"/></g></g></g><g clip-path="url(#00700cd72c)"><g clip-path="url(#b18f300efb)"><g clip-path="url(#24efb19092)"><path fill="#fefefe" d="M 53.679688 235.738281 L 51.539062 226.191406 L 61.085938 224.050781 L 63.222656 233.597656 Z M 53.679688 235.738281 " fill-opacity="1" fill-rule="nonzero"/></g></g></g><g clip-path="url(#9394370c35)"><g clip-path="url(#41fc2b7ab6)"><g clip-path="url(#51f9050fef)"><path fill="#fefefe" d="M 45.6875 192.832031 L 45.859375 183.050781 L 55.640625 183.222656 L 55.46875 193.003906 Z M 45.6875 192.832031 " fill-opacity="1" fill-rule="nonzero"/></g></g></g><g clip-path="url(#53c5deafea)"><g clip-path="url(#d6d48e677a)"><g clip-path="url(#fa2c201134)"><path fill="#fefefe" d="M 51.5625 148.476562 L 54.855469 139.265625 L 64.066406 142.558594 L 60.773438 151.769531 Z M 51.5625 148.476562 " fill-opacity="1" fill-rule="nonzero"/></g></g></g><g clip-path="url(#a51cdd7ef3)"><g clip-path="url(#e505a1428b)"><g clip-path="url(#20fc5250f5)"><path fill="#fefefe" d="M 69.539062 108.109375 L 75.679688 100.492188 L 83.292969 106.632812 L 77.152344 114.25 Z M 69.539062 108.109375 " fill-opacity="1" fill-rule="nonzero"/></g></g></g><g clip-path="url(#01f0829f52)"><g clip-path="url(#6518b85df9)"><g clip-path="url(#2a21e68013)"><path fill="#fefefe" d="M 100.527344 76.464844 L 108.496094 70.792969 L 114.167969 78.761719 L 106.199219 84.433594 Z M 100.527344 76.464844 " fill-opacity="1" fill-rule="nonzero"/></g></g></g><g clip-path="url(#c2b5daf917)"><g clip-path="url(#23dceb0f8a)"><g clip-path="url(#63324a08b9)"><path fill="#fefefe" d="M 139.011719 54.863281 L 148.335938 51.90625 L 151.292969 61.230469 L 141.96875 64.1875 Z M 139.011719 54.863281 " fill-opacity="1" fill-rule="nonzero"/></g></g></g><g fill="#fefefe" fill-opacity="1"><g transform="translate(90.500928, 216.240219)"><g><path d="M 110.0625 -21.6875 C 110.550781 -21.34375 110.832031 -20.882812 110.90625 -20.3125 C 110.976562 -19.75 110.875 -19.257812 110.59375 -18.84375 C 110.164062 -18.269531 109.597656 -17.984375 108.890625 -17.984375 C 108.609375 -17.984375 108.328125 -18.054688 108.046875 -18.203125 C 107.273438 -18.347656 104.929688 -18.503906 101.015625 -18.671875 C 97.097656 -18.847656 92.457031 -19.046875 87.09375 -19.265625 C 85.613281 -13.054688 84.148438 -6.828125 82.703125 -0.578125 C 81.253906 5.660156 79.929688 11.675781 78.734375 17.46875 C 76.972656 25.71875 75.613281 32.4375 74.65625 37.625 C 73.707031 42.8125 73.070312 46.832031 72.75 49.6875 C 72.4375 52.539062 72.28125 54.601562 72.28125 55.875 C 72.5625 55.382812 72.878906 54.859375 73.234375 54.296875 C 73.515625 53.796875 73.9375 53.472656 74.5 53.328125 C 75.0625 53.191406 75.554688 53.265625 75.984375 53.546875 C 76.472656 53.828125 76.789062 54.234375 76.9375 54.765625 C 77.082031 55.296875 77.007812 55.804688 76.71875 56.296875 C 76.019531 57.566406 75.226562 58.75 74.34375 59.84375 C 73.457031 60.9375 72.488281 61.484375 71.4375 61.484375 C 71.082031 61.484375 70.726562 61.414062 70.375 61.28125 C 69.738281 60.988281 69.226562 60.398438 68.84375 59.515625 C 68.457031 58.640625 68.265625 57.175781 68.265625 55.125 C 68.265625 53.082031 68.523438 50.226562 69.046875 46.5625 C 69.578125 42.894531 70.40625 38.132812 71.53125 32.28125 C 72.664062 26.425781 74.164062 19.265625 76.03125 10.796875 C 77.90625 2.328125 80.21875 -7.722656 82.96875 -19.359375 C 79.4375 -19.429688 75.835938 -19.519531 72.171875 -19.625 C 68.503906 -19.738281 64.941406 -19.828125 61.484375 -19.890625 C 60.640625 -19.960938 59.828125 -20 59.046875 -20 C 58.273438 -20 57.5 -20 56.71875 -20 C 52.207031 -11.46875 47.832031 -3.460938 43.59375 4.015625 C 39.363281 11.492188 35.484375 17.632812 31.953125 22.4375 C 29.765625 25.332031 27.703125 27.238281 25.765625 28.15625 C 23.828125 29.070312 22.097656 29.421875 20.578125 29.203125 C 19.066406 28.992188 17.851562 28.609375 16.9375 28.046875 C 14.601562 26.703125 12.625 24.546875 11 21.578125 C 9.382812 18.617188 8.082031 15.128906 7.09375 11.109375 C 6.101562 7.085938 5.519531 2.835938 5.34375 -1.640625 C 5.164062 -6.117188 5.410156 -10.546875 6.078125 -14.921875 C 6.753906 -19.296875 7.867188 -23.28125 9.421875 -26.875 C 12.597656 -34.070312 17.234375 -38.90625 23.328125 -41.375 C 29.429688 -43.84375 36.613281 -43.773438 44.875 -41.171875 C 45.4375 -41.023438 45.835938 -40.703125 46.078125 -40.203125 C 46.328125 -39.710938 46.347656 -39.1875 46.140625 -38.625 C 45.992188 -38.132812 45.675781 -37.75 45.1875 -37.46875 C 44.695312 -37.1875 44.164062 -37.148438 43.59375 -37.359375 C 41.125 -38.128906 38.476562 -38.65625 35.65625 -38.9375 C 32.84375 -39.226562 30.039062 -39.035156 27.25 -38.359375 C 24.46875 -37.691406 21.859375 -36.316406 19.421875 -34.234375 C 16.984375 -32.148438 14.882812 -29.132812 13.125 -25.1875 C 11.5 -21.519531 10.40625 -17.617188 9.84375 -13.484375 C 9.28125 -9.359375 9.140625 -5.25 9.421875 -1.15625 C 9.703125 2.925781 10.28125 6.75 11.15625 10.3125 C 12.039062 13.875 13.15625 16.90625 14.5 19.40625 C 15.84375 21.914062 17.320312 23.628906 18.9375 24.546875 C 21.90625 26.242188 25.148438 24.726562 28.671875 20 C 31.992188 15.488281 35.664062 9.703125 39.6875 2.640625 C 43.707031 -4.410156 47.867188 -11.992188 52.171875 -20.109375 C 43.566406 -20.390625 36.671875 -20.617188 31.484375 -20.796875 C 26.296875 -20.972656 23.175781 -21.164062 22.125 -21.375 C 21.550781 -21.519531 21.101562 -21.820312 20.78125 -22.28125 C 20.46875 -22.738281 20.382812 -23.25 20.53125 -23.8125 C 20.601562 -24.375 20.882812 -24.796875 21.375 -25.078125 C 21.875 -25.359375 22.367188 -25.46875 22.859375 -25.40625 C 23.566406 -25.257812 25.453125 -25.113281 28.515625 -24.96875 C 31.585938 -24.832031 35.378906 -24.691406 39.890625 -24.546875 C 44.410156 -24.410156 49.210938 -24.269531 54.296875 -24.125 C 56.617188 -28.707031 58.960938 -33.3125 61.328125 -37.9375 C 63.691406 -42.5625 66.035156 -47.128906 68.359375 -51.640625 C 74.003906 -62.859375 78.734375 -72.117188 82.546875 -79.421875 C 86.359375 -86.722656 89.5 -92.382812 91.96875 -96.40625 C 94.4375 -100.425781 96.460938 -103.160156 98.046875 -104.609375 C 99.640625 -106.054688 101.035156 -106.566406 102.234375 -106.140625 C 103.503906 -105.648438 104.242188 -104.609375 104.453125 -103.015625 C 104.660156 -101.429688 104.660156 -99.476562 104.453125 -97.15625 C 104.023438 -92.5625 102.789062 -85.71875 100.75 -76.625 C 100.113281 -73.582031 99.210938 -69.695312 98.046875 -64.96875 C 96.878906 -60.25 95.628906 -55.03125 94.296875 -49.3125 C 93.304688 -45.289062 92.28125 -41.078125 91.21875 -36.671875 C 90.164062 -32.265625 89.109375 -27.800781 88.046875 -23.28125 C 93.972656 -23.070312 98.453125 -22.894531 101.484375 -22.75 C 104.523438 -22.613281 106.644531 -22.457031 107.84375 -22.28125 C 109.039062 -22.101562 109.78125 -21.90625 110.0625 -21.6875 Z M 61.59375 -24.015625 C 66.101562 -23.878906 70.191406 -23.757812 73.859375 -23.65625 C 77.535156 -23.550781 80.890625 -23.460938 83.921875 -23.390625 C 85.828125 -31.566406 87.941406 -40.523438 90.265625 -50.265625 C 91.679688 -55.984375 92.953125 -61.203125 94.078125 -65.921875 C 95.210938 -70.648438 96.128906 -74.5 96.828125 -77.46875 C 97.960938 -82.832031 98.8125 -87.132812 99.375 -90.375 C 99.9375 -93.625 100.285156 -96.113281 100.421875 -97.84375 C 100.566406 -99.570312 100.601562 -100.785156 100.53125 -101.484375 C 99.332031 -100.285156 97.675781 -97.941406 95.5625 -94.453125 C 93.445312 -90.960938 91.066406 -86.742188 88.421875 -81.796875 C 85.773438 -76.859375 83.039062 -71.601562 80.21875 -66.03125 C 77.394531 -60.457031 74.644531 -55.0625 71.96875 -49.84375 C 69.84375 -45.613281 67.671875 -41.328125 65.453125 -36.984375 C 63.234375 -32.648438 61.03125 -28.328125 58.84375 -24.015625 C 59.257812 -24.015625 59.695312 -24.015625 60.15625 -24.015625 C 60.613281 -24.015625 61.09375 -24.015625 61.59375 -24.015625 Z M 61.59375 -24.015625 "/></g></g></g><g fill="#fefefe" fill-opacity="1"><g transform="translate(206.702263, 216.240219)"><g><path d="M 42.65625 -23.59375 C 43.144531 -23.3125 43.457031 -22.90625 43.59375 -22.375 C 43.738281 -21.851562 43.671875 -21.34375 43.390625 -20.84375 C 40.078125 -14.988281 37.097656 -10.488281 34.453125 -7.34375 C 31.804688 -4.207031 29.101562 -2.816406 26.34375 -3.171875 C 22.820312 -3.597656 20.035156 -7.410156 17.984375 -14.609375 C 17.285156 -16.929688 16.671875 -18.601562 16.140625 -19.625 C 15.609375 -20.65625 15.179688 -21.289062 14.859375 -21.53125 C 14.546875 -21.78125 14.320312 -21.90625 14.1875 -21.90625 C 13.96875 -21.976562 13.539062 -21.765625 12.90625 -21.265625 C 12.269531 -20.773438 11.351562 -19.679688 10.15625 -17.984375 C 8.957031 -16.296875 7.472656 -13.671875 5.703125 -10.109375 C 3.941406 -6.546875 1.796875 -1.660156 -0.734375 4.546875 C -1.085938 5.398438 -1.691406 5.828125 -2.546875 5.828125 C -2.753906 5.828125 -2.925781 5.789062 -3.0625 5.71875 C -4.269531 5.4375 -4.800781 4.695312 -4.65625 3.5 C -4.300781 0.601562 -3.664062 -2.75 -2.75 -6.5625 C -1.832031 -10.375 -0.828125 -14.253906 0.265625 -18.203125 C 1.359375 -22.148438 2.363281 -25.675781 3.28125 -28.78125 C 3.488281 -29.488281 3.679688 -30.140625 3.859375 -30.734375 C 4.035156 -31.335938 4.195312 -31.921875 4.34375 -32.484375 C 4.550781 -33.046875 4.898438 -33.453125 5.390625 -33.703125 C 5.890625 -33.953125 6.382812 -34.003906 6.875 -33.859375 C 7.4375 -33.722656 7.859375 -33.40625 8.140625 -32.90625 C 8.429688 -32.414062 8.46875 -31.890625 8.25 -31.328125 C 8.113281 -30.765625 7.957031 -30.179688 7.78125 -29.578125 C 7.601562 -28.972656 7.410156 -28.320312 7.203125 -27.625 C 6.703125 -25.789062 6.132812 -23.78125 5.5 -21.59375 C 4.863281 -19.40625 4.226562 -17.179688 3.59375 -14.921875 C 6 -19.429688 8.046875 -22.425781 9.734375 -23.90625 C 11.429688 -25.394531 12.984375 -26.101562 14.390625 -26.03125 C 16.367188 -25.894531 17.921875 -24.800781 19.046875 -22.75 C 20.179688 -20.707031 21.132812 -18.34375 21.90625 -15.65625 C 22.96875 -11.988281 23.957031 -9.660156 24.875 -8.671875 C 25.789062 -7.691406 26.457031 -7.203125 26.875 -7.203125 C 27.789062 -7.054688 28.863281 -7.566406 30.09375 -8.734375 C 31.332031 -9.898438 32.566406 -11.378906 33.796875 -13.171875 C 35.035156 -14.972656 36.203125 -16.753906 37.296875 -18.515625 C 38.390625 -20.285156 39.222656 -21.734375 39.796875 -22.859375 C 40.078125 -23.347656 40.5 -23.660156 41.0625 -23.796875 C 41.625 -23.941406 42.15625 -23.875 42.65625 -23.59375 Z M 42.65625 -23.59375 "/></g></g></g><g fill="#fefefe" fill-opacity="1"><g transform="translate(245.118559, 216.240219)"><g><path d="M 44.34375 -23.5 C 44.832031 -23.28125 45.164062 -22.90625 45.34375 -22.375 C 45.519531 -21.851562 45.503906 -21.34375 45.296875 -20.84375 C 43.953125 -18.09375 42.484375 -15.34375 40.890625 -12.59375 C 39.304688 -9.84375 37.648438 -7.320312 35.921875 -5.03125 C 34.191406 -2.738281 32.410156 -0.90625 30.578125 0.46875 C 28.742188 1.851562 26.910156 2.546875 25.078125 2.546875 C 24.722656 2.546875 24.335938 2.507812 23.921875 2.4375 C 19.191406 1.519531 16.265625 -4.828125 15.140625 -16.609375 C 13.929688 -14.992188 12.535156 -13.179688 10.953125 -11.171875 C 9.367188 -9.160156 7.691406 -7.164062 5.921875 -5.1875 C 5.640625 -4.90625 5.179688 -4.460938 4.546875 -3.859375 C 3.910156 -3.265625 3.171875 -2.789062 2.328125 -2.4375 C 1.484375 -2.082031 0.632812 -2.117188 -0.21875 -2.546875 C -1.90625 -3.179688 -2.710938 -5.015625 -2.640625 -8.046875 C -2.640625 -9.804688 -2.304688 -11.988281 -1.640625 -14.59375 C -0.972656 -17.207031 -0.0234375 -19.835938 1.203125 -22.484375 C 2.441406 -25.128906 3.890625 -27.472656 5.546875 -29.515625 C 7.210938 -31.566406 9.066406 -32.945312 11.109375 -33.65625 C 12.378906 -34.144531 13.929688 -34.226562 15.765625 -33.90625 C 17.597656 -33.59375 19.503906 -32.273438 21.484375 -29.953125 C 21.835938 -29.523438 21.992188 -29.03125 21.953125 -28.46875 C 21.921875 -27.90625 21.691406 -27.445312 21.265625 -27.09375 C 20.847656 -26.738281 20.351562 -26.578125 19.78125 -26.609375 C 19.21875 -26.648438 18.765625 -26.878906 18.421875 -27.296875 C 16.722656 -29.273438 15.253906 -30.210938 14.015625 -30.109375 C 12.785156 -30.003906 11.75 -29.632812 10.90625 -29 C 9.351562 -27.863281 7.941406 -26.238281 6.671875 -24.125 C 5.398438 -22.007812 4.335938 -19.785156 3.484375 -17.453125 C 2.640625 -15.128906 2.039062 -12.960938 1.6875 -10.953125 C 1.34375 -8.941406 1.238281 -7.476562 1.375 -6.5625 C 1.582031 -6.695312 1.8125 -6.867188 2.0625 -7.078125 C 2.3125 -7.296875 2.578125 -7.582031 2.859375 -7.9375 C 4.972656 -10.257812 6.910156 -12.566406 8.671875 -14.859375 C 10.441406 -17.160156 11.960938 -19.191406 13.234375 -20.953125 C 13.578125 -21.441406 13.90625 -21.914062 14.21875 -22.375 C 14.539062 -22.84375 14.847656 -23.25 15.140625 -23.59375 C 15.703125 -24.300781 16.441406 -24.515625 17.359375 -24.234375 C 18.273438 -24.023438 18.769531 -23.425781 18.84375 -22.4375 C 19.050781 -17.851562 19.421875 -14.164062 19.953125 -11.375 C 20.484375 -8.59375 21.0625 -6.507812 21.6875 -5.125 C 22.320312 -3.75 22.921875 -2.816406 23.484375 -2.328125 C 24.054688 -1.835938 24.484375 -1.59375 24.765625 -1.59375 C 26.109375 -1.3125 28.257812 -2.6875 31.21875 -5.71875 C 34.175781 -8.75 37.632812 -14.359375 41.59375 -22.546875 C 41.875 -23.109375 42.273438 -23.476562 42.796875 -23.65625 C 43.328125 -23.832031 43.84375 -23.78125 44.34375 -23.5 Z M 44.34375 -23.5 "/></g></g></g></svg>